<?xml version="1.0" encoding="UTF-8"?><svg xmlns="http://www.w3.org/2000/svg" xmlns:xlink="http://www.w3.org/1999/xlink" width="64px" height="64px" viewBox="0 0 64 64" version="1.1"><title>typography</title><defs><path id="path-1" d="M.06 64V.04H64V64z"/></defs><g id="Page-1" stroke="none" stroke-width="1" fill="none" fill-rule="evenodd"><g id="typography"><g id="Group-3"><mask id="mask-2" fill="#fff"><use xlink:href="#path-1"/></mask><path d="M64 32c0 17.673-14.327 32-32 32C14.327 64 0 49.673 0 32 0 14.327 14.327 0 32 0c17.673 0 32 14.327 32 32" id="Fill-1" fill="#76ABC4" mask="url(#mask-2)"/></g><path d="M10.002 48.501a1.5 1.5 0 0 1-1.406-2.028l12-32a1.5 1.5 0 0 1 2.808 0l12 32a1.5 1.5 0 1 1-2.808 1.054L27.898 35H16.102l-4.698 12.527a1.497 1.497 0 0 1-1.402.974M22 19.272L17.227 32h9.546L22 19.272" id="Fill-4" fill="#638DA0"/><path d="M53 48.5h-8c-4.687 0-8.5-3.813-8.5-8.5 0-4.561 3.654-8 8.5-8h6.5v-1c0-1.588-.484-2.749-1.48-3.546-1.364-1.093-3.541-1.415-5.545-1.415-1.713 0-3.299.235-4.146.424a1.501 1.501 0 0 1-.66-2.926c.166-.038 2.247-.495 4.801-.495 2.464 0 5.368.426 7.419 2.065C53.622 26.492 54.5 28.475 54.5 31v16a1.5 1.5 0 0 1-1.5 1.5M45 35c-3.187 0-5.5 2.103-5.5 5 0 3.033 2.467 5.5 5.5 5.5h6.5V35H45" id="Fill-5" fill="#638DA0"/><path d="M11.405 45.527L22 17.272l10.596 28.255a1.5 1.5 0 1 0 2.808-1.054l-12-32a1.5 1.5 0 0 0-2.808 0l-12 32a1.5 1.5 0 1 0 2.809 1.054" id="Fill-6" fill="#FFFFFE"/><path d="M16 33h12a1.5 1.5 0 0 0 0-3H16a1.5 1.5 0 0 0 0 3" id="Fill-7" fill="#FFFFFE"/><path d="M40.331 24.463l.011-.002c.169-.039 2.03-.425 4.171-.423 1.737-.009 3.638.274 4.909 1.012.641.368 1.13.819 1.485 1.423.352.606.591 1.395.593 2.527v16H53v-1.5h-8a5.476 5.476 0 0 1-3.889-1.611A5.475 5.475 0 0 1 39.5 38c.007-1.523.59-2.705 1.555-3.586C42.022 33.542 43.406 33 45 33h7a1.5 1.5 0 0 0 0-3h-7c-2.272 0-4.388.775-5.954 2.186-1.569 1.403-2.553 3.472-2.546 5.814a8.5 8.5 0 0 0 8.5 8.5h8c.395 0 .781-.16 1.061-.439.279-.28.439-.666.439-1.061V29c.002-1.565-.351-2.931-1.004-4.042a6.713 6.713 0 0 0-1.849-2.036c-1.08-.789-2.309-1.248-3.535-1.522-1.228-.273-2.463-.361-3.599-.362-2.652.002-4.778.486-4.844.499a1.499 1.499 0 1 0 .662 2.926" id="Fill-8" fill="#FFFFFE"/></g></g><metadata><rdf:RDF xmlns:rdf="http://www.w3.org/1999/02/22-rdf-syntax-ns#" xmlns:rdfs="http://www.w3.org/2000/01/rdf-schema#" xmlns:dc="http://purl.org/dc/elements/1.1/"><rdf:Description about="https://iconscout.com/legal#licenses" dc:title="typography" dc:description="typography" dc:publisher="Iconscout" dc:date="2017-09-25" dc:format="image/svg+xml" dc:language="en"><dc:creator><rdf:Bag><rdf:li>Elegant Themes</rdf:li></rdf:Bag></dc:creator></rdf:Description></rdf:RDF></metadata></svg>